PathFileType	4	(X/Y/Z)	C:/Users/beibeiliu/ov580/test_trc/User1\sequence.27_training_dense_right.trc
DataRate	CameraRate	NumFrames	NumMarkers	Units	OrigDataRate	OrigDataStartFrame	OrigNumFrames
120	120	18	19	mm	120	130	259
Frame#	Time	ThumbCMC			ThumbMCP			ThumbIP			ThumbTip			IndexMCP			IndexPIP			IndexTip			MiddleMCP			MiddlePIP			MiddleTip			RingMCP			RingPIP			RingTip			PinkyMCP			PinkyPIP			PinkyTip			BackHand1			BackHand2			BackHand3	
		X0	Y0	Z0	X1	Y1	Z1	X2	Y2	Z2	X3	Y3	Z3	X4	Y4	Z4	X5	Y5	Z5	X6	Y6	Z6	X7	Y7	Z7	X8	Y8	Z8	X9	Y9	Z9	X10	Y10	Z10	X11	Y11	Z11	X12	Y12	Z12	X13	Y13	Z13	X14	Y14	Z14	X15	Y15	Z15	X16	Y16	Z16	X17	Y17	Z17	X18	Y18	Z18	
129	1.075	179.881	20.6424	89.4592	177.031	48.1813	73.2342	171.396	67.2377	53.6901	159.977	83.9558	37.9025	152.878	16.8146	3.68402	143.981	27.3858	-15.879	123.671	35.8642	-35.0643	130.221	0.960566	1.09168	102.254	19.4702	-8.80936	80.8865	45.7609	9.29431	119.303	-22.6108	11.1592	100.862	-16.7834	-9.13081	76.6017	-0.374607	-22.7953	108.138	-39.261	37.3968	92.0338	-46.9338	21.4217	85.1385	-55.0822	2.48445	147.959	-36.2329	61.3816	161.16	-42.5083	95.5666	177.652	-14.0764	72.8454	
130	1.08333	180.801	20.3254	91.4096	178.499	51.7963	72.1216	169.768	66.6926	51.278	158.234	82.5737	37.0904	157.403	17.4962	5.93078	148.505	28.6759	-16.422	128.73	33.1371	-37.6002	129.274	-2.43512	0.487456	105.715	18.8097	-12.4992	82.6687	40.5002	-1.89469	118.349	-22.3807	10.3262	100.19	-12.583	-11.8326	78.5448	3.13492	-24.5616	109.087	-38.5542	32.9199	97.8899	-45.3709	22.0896	92.3181	-55.2146	-1.72859	150.768	-34.5507	59.9917	158.063	-45.1376	93.9543	175.907	-13.8627	72.1116	
131	1.09167	180.447	21.093	88.1501	178.09	50.4043	76.578	171.006	70.4508	52.2064	160.557	84.6683	38.6651	161.861	19.9605	7.72122	151.836	26.5101	-16.8881	136.495	36.009	-38.9686	135.913	-4.09743	2.83496	110.877	15.367	-18.861	82.1128	35.2676	-15.8446	120.565	-22.333	11.5257	102.267	-12.5389	-12.5587	78.4898	3.73015	-23.8758	110.667	-39.8998	33.3626	99.0103	-44.7172	16.3063	95.4888	-55.2237	-1.42311	150.945	-33.7029	61.9892	160.599	-44.1308	88.8612	176.678	-13.864	69.4437	
132	1.1	183.72	24.2743	92.7435	179.852	52.6807	76.1829	171.88	70.7988	51.0805	158.703	82.7067	37.3922	158.958	15.8472	7.23065	150.492	23.2333	-17.7466	139.338	34.3846	-44.9915	140.978	-2.76583	0.380413	116.345	10.2367	-23.5827	90.5205	26.7875	-30.2954	121.104	-21.6932	9.3125	105.335	-13.4874	-12.3631	83.0454	4.26015	-26.1022	111.765	-39.5121	35.5807	100.706	-44.4158	14.4085	96.9019	-51.4796	-3.94629	151.194	-36.8322	61.3348	158.917	-44.8678	93.3158	179.824	-13.6181	73.797	
133	1.10833	184.264	24.7874	91.7579	176.754	51.0828	70.9007	169.407	66.74	52.8281	158.124	82.6716	36.2475	162.902	18.7434	4.07574	153.583	24.5584	-19.8576	139.993	26.2523	-46.265	137.581	-5.64982	-1.29438	124.376	8.11687	-22.8522	95.9107	21.2563	-38.7844	121.156	-23.7686	10.356	103.162	-17.2408	-12.1201	82.231	-4.065	-25.9853	109.537	-41.9673	33.192	99.3821	-47.5514	15.4059	98.7718	-51.8463	-2.78398	150.086	-34.3163	60.2599	162.753	-40.72	88.838	179.293	-10.9894	71.7046	
134	1.11667	182.049	21.197	90.4732	177.466	49.8603	73.713	172.332	71.0275	50.0347	160.225	84.6517	33.1298	162.554	14.141	4.9122	158.011	22.6577	-18.3853	145.912	24.9907	-46.6451	141.792	-3.85681	-2.36009	123.682	6.01374	-25.4689	96.1261	20.4573	-44.5142	123.651	-21.9401	8.40047	106.07	-15.7857	-12.4707	84.1834	1.18228	-30.4685	113.117	-39.2784	34.7024	102.028	-43.8784	13.4964	99.5249	-52.6547	-4.47494	153.58	-34.7187	61.9377	161.655	-41.4878	94.1701	178.517	-15.4795	73.0421	
135	1.125	184.047	23.0265	87.6884	180.653	52.8491	72.1566	172.985	70.3568	48.4386	160.585	81.9248	32.7993	165.835	16.17	6.04733	156.638	17.5035	-19.4955	147.074	19.361	-45.1652	138.879	-5.54687	-3.74726	123.499	4.59537	-25.8008	101.614	17.4172	-43.2814	121.479	-20.9212	5.70407	103.146	-12.5662	-15.3269	83.9744	-0.4579	-26.0365	112.013	-38.2173	32.8887	100.509	-45.6929	13.7421	97.5611	-54.2207	-5.22977	150.173	-34.3114	58.2671	163.542	-42.6854	92.3648	177.579	-12.8334	68.6496	
136	1.13333	183.99	23.3388	90.5437	177.586	49.1703	70.635	170.958	65.7898	49.532	161.264	80.6344	31.7059	163.339	11.4836	6.72491	160.723	19.2408	-18.6114	147.874	18.861	-47.138	138.732	-5.63822	-2.12336	125.397	5.86602	-23.699	98.9398	18.6792	-40.399	120.804	-22.5929	9.82846	102.186	-12.2069	-11.1776	80.0792	4.51022	-24.0729	112.942	-38.8894	32.2728	100.092	-44.1313	14.2656	97.4987	-50.2928	-8.03459	151.373	-35.6772	57.8965	160.101	-43.7156	93.3851	178.938	-14.6959	68.9072	
137	1.14167	184.022	24.3815	91.0528	178.171	50.2656	70.2437	173.675	67.6615	47.1618	161.032	79.7637	33.7613	164.086	13.045	3.67577	159.3	18.8567	-18.8166	151.284	19.9059	-44.232	138.123	-4.21458	-0.73575	119.776	11.0206	-25.3096	94.9394	26.7798	-34.8579	119.031	-20.5371	7.86137	99.1581	-5.81929	-12.1439	77.7844	13.487	-17.9521	111.62	-37.9553	29.8151	101.599	-42.7663	14.9262	91.8588	-50.9614	-6.65307	150.108	-38.447	61.0184	164.982	-41.4263	90.8792	180.346	-11.5673	69.5687	
138	1.15	184.086	25.2923	90.8929	179.36	51.6989	72.6956	173.201	68.6419	49.0866	162.062	84.3413	32.0154	162.794	13.5383	4.41216	158.623	19.8401	-20.544	148.813	19.0476	-43.3216	136.581	-1.78645	-1.06577	113.903	15.4356	-19.8382	87.5567	29.1124	-22.6088	120.697	-18.619	12.1064	95.2931	-4.73273	-7.6222	76.3717	18.5208	-8.9339	112.496	-37.9132	30.9839	102.575	-41.1711	15.0462	94.6313	-49.5116	-6.8797	153.751	-35.171	58.8444	163.298	-43.288	91.1342	179.685	-11.9593	73.6583	
139	1.15833	181.178	23.4699	91.7495	176.253	49.4866	70.7534	171.392	68.5638	49.2167	159.353	80.0447	34.0026	164.672	17.6312	4.8695	156.902	21.7049	-20.639	147.939	21.4088	-41.7367	135.553	0.707079	0.538332	108.977	18.6727	-14.9345	81.8053	35.6102	-10.1108	121.388	-15.0381	12.2199	96.105	-2.19496	-3.6104	72.6268	22.4985	2.28386	110.673	-38.8552	32.2983	103.922	-40.1259	17.3844	95.7311	-47.7879	-6.70014	153.644	-33.2115	59.6915	165.013	-42.1551	92.2682	179.535	-12.2831	72.9235	
140	1.16667	181.661	24.1156	88.9767	179.569	53.9923	72.5926	170.931	68.096	52.2428	159.768	80.855	32.6976	163.349	17.6453	7.64723	153.114	19.4273	-21.0167	146.624	22.9876	-44.6183	135.151	2.13246	3.51805	107.186	22.9455	-11.0885	78.7898	40.0303	1.23178	116.71	-16.8881	11.1879	94.261	3.34705	-1.85946	71.0717	24.8309	12.387	112.815	-36.9108	35.6571	104.009	-39.0003	18.5097	95.6789	-46.5242	-8.80233	150.251	-35.5289	63.5548	163.053	-39.9442	91.0217	181.3	-8.56411	72.1092	
141	1.175	184.342	27.0255	92.2345	177.177	52.6019	70.0586	172.48	70.0132	48.3342	158.693	80.9228	33.5162	162.594	19.7484	3.42731	151.886	19.3394	-18.8135	141.351	21.5712	-43.3218	131.025	2.12075	4.68035	106.568	26.0713	-7.24304	80.6902	44.2818	9.8656	117.143	-10.4031	10.4791	89.5607	6.66262	2.95277	75.1796	27.6089	16.8187	110.48	-38.0166	36.1831	100.11	-39.3132	15.8202	93.9413	-46.9285	-3.07195	153.556	-31.8689	59.4953	163.679	-42.5034	92.9472	178.26	-11.8799	71.5326	
142	1.18333	183.868	27.7178	87.2307	180.297	55.0703	71.9059	172.107	70.0924	48.0072	159.411	82.153	34.7325	160.153	17.6188	4.6875	152.008	22.8316	-18.2559	141.695	24.3106	-42.7116	129.518	5.57635	3.11534	103.657	24.3715	-3.42645	80.5328	47.7853	21.6827	113.487	-10.2297	10.588	92.5402	8.54316	4.34703	74.3859	31.5179	27.7126	109.985	-35.9861	33.5751	102.395	-36.4833	18.0313	94.8939	-48.8563	-2.23665	153.208	-31.8068	63.4179	162.56	-42.8228	88.9273	181.799	-9.3528	70.0286	
143	1.19167	182.214	25.6033	87.0399	179.519	53.9248	73.28	171.98	71.4569	48.1599	159.687	83.8589	30.4352	160.791	19.2041	7.20812	150.694	24.4555	-21.0551	137.461	23.2019	-43.4096	130.383	5.68912	5.29261	102.298	26.6535	-0.920457	83.2411	49.3235	26.8127	116.568	-11.3672	14.918	85.6931	11.6477	10.1105	76.4353	31.2387	30.9136	110.765	-35.6703	36.3913	100.452	-37.0202	20.6732	99.2958	-44.8592	-3.55127	154.349	-31.7688	57.8786	164.943	-39.0208	94.7683	178.675	-8.55033	70.9075	
144	1.2	183.445	25.108	92.5682	180.001	55.0368	72.9947	171.711	68.9383	50.0901	161.706	85.2728	34.001	159.793	19.6796	3.72987	148.116	21.6946	-20.8034	139.79	26.7912	-41.7672	132.053	8.78909	6.85103	101.683	30.471	2.4117	85.1294	49.3268	28.7751	113.623	-9.29158	13.241	88.8801	9.36533	10.5436	77.0167	31.5651	36.887	109.26	-36.5944	34.9598	100.723	-37.6969	15.8374	99.902	-44.2409	-0.322826	151.363	-30.8703	58.6702	165.942	-39.3265	94.6519	180.676	-10.275	69.198	
145	1.20833	183.271	25.1802	90.8506	179.221	52.9418	70.3367	173.612	70.6215	50.495	162.661	84.7024	32.7098	157.637	18.0333	3.99354	149.969	22.5844	-17.7854	138.883	26.916	-42.3596	131.383	7.18232	6.09547	103.048	30.6291	1.52886	85.81	48.1937	31.3486	115.528	-9.04412	12.9326	88.6516	13.7125	10.3034	79.351	30.7045	37.7707	111.745	-34.7447	34.7615	102.586	-37.1821	18.9491	97.5119	-49.5279	0.606089	150.741	-34.61	62.3057	164.287	-39.8443	92.8975	179.345	-12.4132	70.9451	
146	1.21667	183.967	25.5831	87.2619	179.686	51.2086	72.908	173.819	68.7505	48.1131	162.9	83.3162	34.586	161.22	20.7257	2.07076	152.398	24.8994	-16.3786	136.506	24.8324	-43.8589	131.766	8.32474	6.10755	102.997	31.2913	2.40576	87.2922	49.4724	35.0755	116.636	-10.3494	14.5057	90.1255	13.4016	10.3804	81.1945	31.0206	35.0178	110.164	-36.1335	31.3075	102.479	-38.3442	15.5361	99.7408	-46.9059	-5.30637	154.894	-32.0094	57.7488	162.745	-39.4768	91.2993	180.043	-10.349	73.1013	
